<?xml version="1.0" encoding="UTF-8"?>
<svg width="25px" height="25px" viewBox="0 0 25 25" version="1.1" xmlns="http://www.w3.org/2000/svg" xmlns:xlink="http://www.w3.org/1999/xlink">
    <!-- Generator: Sketch 51.3 (57544) - http://www.bohemiancoding.com/sketch -->
    <title>github</title>
    <desc>Created with Sketch.</desc>
    <defs></defs>
    <g id="Page-1" stroke="none" stroke-width="1" fill="none" fill-rule="evenodd">
        <g id="Home" transform="translate(-442.000000, -982.000000)" fill="#9B9B9B">
            <g id="footer" transform="translate(442.000000, 982.000000)">
                <g id="github">
                    <g id="Shape">
                        <path d="M21.0652231,21.6195711 C19.9519419,22.7620914 18.6563439,23.6588071 17.2141489,24.2848543 C16.8478253,24.4438669 16.4758113,24.5834511 16.0985577,24.7038381 L16.0985577,22.4853516 C16.0985577,21.3192396 15.7089093,20.4615543 14.9294997,19.9122379 C15.4178561,19.8640715 15.8661546,19.7965923 16.2746206,19.7098581 C16.6830867,19.623124 17.1151029,19.497822 17.570444,19.3340101 C18.0258977,19.1701981 18.4343637,18.9750463 18.7958421,18.7485544 C19.1574331,18.5220626 19.5048265,18.2281494 19.8381348,17.866757 C20.1715557,17.5053647 20.4508338,17.0958059 20.6761944,16.638023 C20.901555,16.18024 21.0800406,15.6309236 21.2114258,14.9900738 C21.3429237,14.3492239 21.4086163,13.6432656 21.4086163,12.8723145 C21.4086163,11.3785786 20.9344576,10.1064774 19.9860276,9.056011 C20.4180439,7.89955541 20.3710562,6.64190995 19.8451773,5.28307463 L19.4930514,5.23970755 C19.2489859,5.21079616 18.8099271,5.31678531 18.1761005,5.55773283 C17.5422739,5.79868036 16.8309796,6.19378341 16.0422175,6.74309981 C14.9248798,6.42507453 13.7651743,6.26606188 12.56327,6.26606188 C11.3519569,6.26606188 10.1969839,6.42507453 9.09835111,6.74309981 C8.60069862,6.39616314 8.12884991,6.1094778 7.68280499,5.88298597 C7.23676007,5.65649414 6.87995793,5.50233861 6.61234225,5.42040373 C6.34472656,5.33846885 6.09587215,5.28787392 5.86583534,5.26861894 C5.63579853,5.24936395 5.48790565,5.24450684 5.4221567,5.25416324 C5.35640775,5.26381964 5.30947641,5.27341823 5.28130634,5.28307463 C4.75548377,6.65156635 4.70849609,7.90921181 5.14045598,9.056011 C4.19208233,10.1064774 3.71786734,11.3785786 3.71786734,12.8723145 C3.71786734,13.6432656 3.78361629,14.3492239 3.91505784,14.9900738 C4.0464994,15.6309236 4.22492864,16.18024 4.45028921,16.638023 C4.67564979,17.0958059 4.95498422,17.5053647 5.28834886,17.866757 C5.62171349,18.2281494 5.96910682,18.5220626 6.33064153,18.7485544 C6.69217623,18.9750463 7.10064228,19.1701981 7.55603966,19.3340101 C8.01143705,19.497822 8.44339694,19.623124 8.85186298,19.7098581 C9.26032903,19.7965923 9.70868389,19.8640715 10.1969839,19.9122379 C9.42698317,20.4518979 9.04201097,21.309641 9.04201097,22.4853516 L9.04201097,24.7470896 C8.61669922,24.6171618 8.19747221,24.4636423 7.78562575,24.2848543 C6.34348708,23.6588071 5.04783278,22.7620914 3.93460787,21.6195711 C2.8214393,20.4771086 1.94766001,19.1473003 1.3377216,17.6671528 C0.706824669,16.1361212 0.38686899,14.5082944 0.38686899,12.8289474 C0.38686899,11.1496004 0.706824669,9.52177349 1.33783428,7.99062628 C1.94782903,6.5105366 2.82155198,5.18078613 3.93472055,4.03826583 C5.04788912,2.89574553 6.34359976,1.99902986 7.78573843,1.37304045 C9.27762545,0.725425319 10.8637132,0.397049753 12.5,0.397049753 C14.1362868,0.397049753 15.7223745,0.725425319 17.2143179,1.37304045 C18.6565129,1.99908769 19.9521109,2.89580335 21.0653921,4.03826583 C22.1785607,5.18072831 23.0522837,6.5105366 23.6622221,7.99062628 C24.293119,9.52177349 24.613131,11.1496004 24.613131,12.8289474 C24.613131,14.5082944 24.293119,16.1361212 23.6621657,17.6672685 C23.0522273,19.1473003 22.1783917,20.4771664 21.0652231,21.6195711 Z" fill-rule="nonzero"></path>
                    </g>
                </g>
            </g>
        </g>
    </g>
</svg>