<?xml version="1.0" encoding="UTF-8"?>
<svg width="25px" height="25px" viewBox="0 0 25 25" version="1.1" xmlns="http://www.w3.org/2000/svg" xmlns:xlink="http://www.w3.org/1999/xlink">
    <!-- Generator: Sketch 51.3 (57544) - http://www.bohemiancoding.com/sketch -->
    <title>linkedin</title>
    <desc>Created with Sketch.</desc>
    <defs></defs>
    <g id="Page-1" stroke="none" stroke-width="1" fill="none" fill-rule="evenodd">
        <g id="Home" transform="translate(-480.000000, -982.000000)" fill="#9B9B9B">
            <g id="footer" transform="translate(442.000000, 982.000000)">
                <g id="linkedin" transform="translate(38.000000, 0.000000)">
                    <g id="Shape">
                        <path d="M12.5,0 C5.59749604,0 0,5.59749604 0,12.5 C0,19.402504 5.59749604,25 12.5,25 C19.402504,25 25,19.402504 25,12.5 C25,5.59749604 19.402504,0 12.5,0 Z M8.86764526,18.8964844 L5.82332612,18.8964844 L5.82332612,9.73758696 L8.86764526,9.73758696 L8.86764526,18.8964844 Z M7.34558105,8.48693848 L7.32574463,8.48693848 C6.3041687,8.48693848 5.64346313,7.78369902 5.64346313,6.90479277 C5.64346313,6.0060501 6.32438662,5.32226562 7.36579893,5.32226562 C8.40721133,5.32226562 9.04808047,6.0060501 9.06791689,6.90479277 C9.06791689,7.78369902 8.40721133,8.48693848 7.34558105,8.48693848 Z M19.8448181,18.8964844 L16.8008804,18.8964844 L16.8008804,13.9966965 C16.8008804,12.7653122 16.3600922,11.9255066 15.2585983,11.9255066 C14.4176483,11.9255066 13.9167786,12.4919892 13.6966705,13.038826 C13.6161804,13.23452 13.5965347,13.5080337 13.5965347,13.7817383 L13.5965347,18.8964844 L10.5524063,18.8964844 C10.5524063,18.8964844 10.5922699,10.5968476 10.5524063,9.73758696 L13.5965347,9.73758696 L13.5965347,11.0343933 C14.0010834,10.4103088 14.7249222,9.52262881 16.340065,9.52262881 C18.3429718,9.52262881 19.8448181,10.8316421 19.8448181,13.6447906 L19.8448181,18.8964844 Z" fill-rule="nonzero"></path>
                    </g>
                </g>
            </g>
        </g>
    </g>
</svg>