<?xml version="1.0" encoding="UTF-8"?>
<svg width="25px" height="25px" viewBox="0 0 25 25" version="1.1" xmlns="http://www.w3.org/2000/svg" xmlns:xlink="http://www.w3.org/1999/xlink">
    <!-- Generator: Sketch 51.3 (57544) - http://www.bohemiancoding.com/sketch -->
    <title>twitter</title>
    <desc>Created with Sketch.</desc>
    <defs></defs>
    <g id="Page-1" stroke="none" stroke-width="1" fill="none" fill-rule="evenodd">
        <g id="Home" transform="translate(-518.000000, -982.000000)" fill="#9B9B9B">
            <g id="footer" transform="translate(442.000000, 982.000000)">
                <g id="twitter" transform="translate(76.000000, 0.000000)">
                    <g id="Shape">
                        <path d="M12.4843943,0 C5.58988706,0 0,5.58988706 0,12.4843943 C0,19.3789014 5.58988706,24.9687885 12.4843943,24.9687885 C19.3789014,24.9687885 24.9687885,19.3789014 24.9687885,12.4843943 C24.9687885,5.58834702 19.3789014,0 12.4843943,0 Z M18.6953799,9.68162218 L18.7047228,10.0795688 C18.7047228,14.1432238 15.6132957,18.8248973 9.95939425,18.8248973 C8.22407598,18.8248973 6.6088809,18.3161704 5.24810062,17.4437885 C5.48844969,17.4718686 5.73341889,17.4874743 5.98157084,17.4874743 C7.42197125,17.4874743 8.74686858,16.9958932 9.7986653,16.1719199 C8.45349076,16.1469713 7.31894251,15.2574435 6.92725873,14.037115 C7.11606776,14.0729979 7.30646817,14.0901951 7.5062115,14.0901951 C7.78711499,14.0901951 8.05862423,14.0543121 8.3161191,13.9840862 C6.9100616,13.7000513 5.85046201,12.4594456 5.85046201,10.9706879 L5.85046201,10.9316735 C6.26555441,11.1626283 6.73839836,11.2999487 7.2424538,11.3171458 C6.41848049,10.7662731 5.87541068,9.82525667 5.87541068,8.75939425 C5.87541068,8.19604723 6.02679671,7.66858316 6.29050308,7.21447639 C7.80580082,9.07464066 10.0717146,10.2981006 12.6263347,10.426078 C12.5732546,10.2013347 12.5467659,9.96570842 12.5467659,9.72541068 C12.5467659,8.02910678 13.923152,6.6526694 15.6210472,6.6526694 C16.5043121,6.6526694 17.3033368,7.02561602 17.8650924,7.62330595 C18.5642197,7.48439425 19.2227926,7.22849076 19.8173511,6.8773614 C19.5879363,7.59522587 19.101078,8.19758727 18.4659138,8.57833676 C19.0854723,8.50497947 19.6800308,8.33798768 20.2309035,8.09455852 C19.8189425,8.70939425 19.2961499,9.25092402 18.6953799,9.68162218 Z" fill-rule="nonzero"></path>
                    </g>
                </g>
            </g>
        </g>
    </g>
</svg>