<?xml version="1.0" encoding="UTF-8"?>
<svg width="25px" height="25px" viewBox="0 0 25 25" version="1.1" xmlns="http://www.w3.org/2000/svg" xmlns:xlink="http://www.w3.org/1999/xlink">
    <!-- Generator: Sketch 51.3 (57544) - http://www.bohemiancoding.com/sketch -->
    <title>youtube</title>
    <desc>Created with Sketch.</desc>
    <defs></defs>
    <g id="Page-1" stroke="none" stroke-width="1" fill="none" fill-rule="evenodd">
        <g id="Home" transform="translate(-556.000000, -982.000000)" fill="#9B9B9B">
            <g id="footer" transform="translate(442.000000, 982.000000)">
                <g id="youtube" transform="translate(114.000000, 0.000000)">
                    <g id="Shape">
                        <path d="M12.4843943,0 C5.58988706,0 0,5.58988706 0,12.4843943 C0,19.3789014 5.58988706,24.9687885 12.4843943,24.9687885 C19.3789014,24.9687885 24.9687885,19.3789014 24.9687885,12.4843943 C24.9687885,5.58834702 19.3789014,0 12.4843943,0 Z M20.1544661,15.2793121 C20.0701745,16.3186345 19.2805441,17.6451232 18.1772587,17.8370637 C14.6426078,18.1117043 10.4541068,18.0774127 6.79306982,17.8370637 C5.65077002,17.6934805 4.90010267,16.3170945 4.81586242,15.2793121 C4.63793634,13.0976899 4.63793634,11.8554928 4.81586242,9.6738193 C4.900154,8.63603696 5.66950719,7.2674538 6.79306982,7.1426078 C10.411961,6.83829569 14.623922,6.9038501 18.1772587,7.1426078 C19.4475359,7.18942505 20.0702259,8.49871663 20.1544661,9.53803901 C20.3292608,11.7197125 20.3292608,13.0976899 20.1544661,15.2793121 Z" fill-rule="nonzero"></path>
                        <polygon fill-rule="nonzero" points="10.9238193 15.6054928 15.6054928 12.4843943 10.9238193 9.36329569"></polygon>
                    </g>
                </g>
            </g>
        </g>
    </g>
</svg>