<?xml version="1.0" ?><!DOCTYPE svg  PUBLIC '-//W3C//DTD SVG 1.1//EN'  'http://www.w3.org/Graphics/SVG/1.1/DTD/svg11.dtd'><svg enable-background="new 0 0 512 512" height="512px" id="Слой_1" version="1.1" viewBox="0 0 512 512" width="512px" xml:space="preserve" xmlns="http://www.w3.org/2000/svg" xmlns:xlink="http://www.w3.org/1999/xlink"><g id="github_1_"><g><path d="M511.994,256c0,141.387-114.607,255.988-256.004,255.988C114.613,511.988,0.006,397.387,0.006,256    c0-141.381,114.6-255.988,255.992-255.988C397.379,0.012,511.994,114.619,511.994,256z" fill="#3C3C3C"/><path d="M173.719,267.975l-45.68,0.695l-13.988,2.391l8.863,8.867l-4.77,2.266l64.465,64.477l-1.867,1.875    l50.475,50.482l-2.141,2.367l-11.39,4.055l99.202,99.195c96.826-23.633,172.027-102.305,190.613-201.021L347.638,143.758    L188.055,277.959L173.719,267.975z" opacity="0.2"/></g><path d="M416.918,271.068l0.273-2.773c-16.859-1.617-33.633-1.758-49.93-0.539   c2.625-8.258,3.992-17.584,3.891-28.186c-0.211-22.547-7.813-40.086-19.757-54.656c2.304-13.727,0.586-27.438-3.758-41.156   c-17.078,1.375-32.444,6.891-46.124,16.508c-25.578-5.141-51.141-5.461-76.727-0.008c-15.96-10.641-31.632-15.867-47.053-16.5   c-4.578,15.102-5.281,30.008-1.43,44.648c-13.445,14.117-18.594,31.258-18.336,50.227c0.133,10.875,1.836,20.529,4.953,29.076   c-16.047-1.164-32.539-1.016-49.129,0.594l0.258,2.758c16.91-1.617,33.707-1.75,50.012-0.484c0.602,1.438,1.219,2.859,1.891,4.242   c-17.672-0.461-33.594,1.055-48.48,4.672l0.672,2.703c15.121-3.664,31.324-5.141,49.418-4.539   c11.953,21.008,34.983,33.352,68.529,37.266c-7.805,6.242-11.984,13.633-13.054,21.984c0,0-3.539,0-17.758,0   c-23.866-0.008-30.374-30.07-55.085-27.102c23.969,11.758,19.195,49.297,57.546,49.297c12.891,0.008,15.641,0.008,16.109,0.008   v34.404c0.18,5.57-2.273,9.289-6.227,11.867c13.726,1.375,24.062-5.398,24.062-13.727c0-8.311,0-41.443,0-45.475   c0-4.07,4.297-4.383,4.297-4.383v53.107c0.164,5.305-2.43,8.313-5.188,11.18c12.109,0.469,23.492-1.914,24-12.102   c0,0,0.008-48.264,0.008-50.834c0-2.547,4.234-2.617,4.234,0c0,2.625,0,48.451,0,48.451c0.125,8.586,7.617,15.563,23.516,14.484   c-4.227-3.398-5.547-6.805-5.547-11.758c0-4.945,0-52.529,0-52.529s4.383-0.219,4.383,4.383c0,4.563,0,36.625,0,44.279   c0,9.875,11.984,13.953,25.656,13.555c-4.469-3.313-7.531-7.273-7.531-12.555v-53.279c-0.477-7.828-3.688-15.234-10.016-22.094   c30.655-4.656,52.756-16.766,63.764-38.43c18.156-0.617,34.398,0.859,49.586,4.547l0.664-2.711   c-15.023-3.641-31.07-5.164-48.922-4.68c0.625-1.375,1.242-2.742,1.758-4.195C382.848,269.303,399.832,269.436,416.918,271.068z    M160.922,314.279c-0.758,0-1.383-0.43-1.383-0.938c0-0.531,0.625-0.961,1.383-0.961c0.742,0,1.367,0.43,1.367,0.961   C162.289,313.857,161.664,314.279,160.922,314.279z M165.203,317.186c-0.82,0-1.516-0.469-1.516-1.07   c0-0.578,0.688-1.047,1.516-1.047c0.836,0,1.508,0.469,1.508,1.055C166.719,316.717,166.047,317.186,165.203,317.186z    M169.563,320.943c-0.984,0-1.766-0.555-1.766-1.234c0-0.711,0.766-1.266,1.766-1.266c0.984,0,1.781,0.563,1.781,1.258   S170.547,320.943,169.563,320.943z M173.805,325.451c-1.148,0-2.086-0.648-2.086-1.453s0.938-1.445,2.086-1.445   c1.141,0,2.086,0.641,2.086,1.453C175.891,324.811,174.945,325.459,173.805,325.451z M178.453,330.568   c-1.266,0-2.305-0.734-2.305-1.625s1.039-1.625,2.305-1.625c1.297,0,2.328,0.734,2.328,1.633   C180.781,329.834,179.75,330.568,178.453,330.568z M183.859,335.756c-1.414,0-2.555-0.813-2.563-1.797   c0.008-1.008,1.148-1.813,2.563-1.813c1.43,0,2.563,0.813,2.578,1.813C186.422,334.943,185.297,335.748,183.859,335.756z    M191.164,340.678c-1.57,0.008-2.852-0.891-2.852-2c-0.008-1.109,1.281-2,2.852-2c1.577,0,2.851,0.891,2.851,2   S192.741,340.678,191.164,340.678z M200.218,343.326c-1.563,0-2.867-0.906-2.867-2.008c0-1.094,1.305-2.008,2.867-2.008   c1.57,0,2.867,0.906,2.867,2.008S201.788,343.326,200.218,343.326z M209.765,343.615c-1.578-0.008-2.859-0.891-2.859-1.984   c0-1.125,1.281-2.016,2.859-2.016s2.836,0.891,2.836,2.016C212.601,342.725,211.343,343.607,209.765,343.615z M219.187,343.803   c-1.563,0.008-2.852-0.891-2.852-2.008c0-1.094,1.273-1.992,2.852-2c1.57,0.008,2.852,0.898,2.852,2   C222.038,342.912,220.757,343.803,219.187,343.803z" fill="#F4F6F9" id="Github_1_"/></g></svg>