<?xml version="1.0" ?><!DOCTYPE svg  PUBLIC '-//W3C//DTD SVG 1.1//EN'  'http://www.w3.org/Graphics/SVG/1.1/DTD/svg11.dtd'><svg enable-background="new 0 0 512 512" height="512px" id="Слой_1" version="1.1" viewBox="0 0 512 512" width="512px" xml:space="preserve" xmlns="http://www.w3.org/2000/svg" xmlns:xlink="http://www.w3.org/1999/xlink"><g id="linkedin_1_"><g><path d="M511.994,256.008c0,141.379-114.607,255.98-255.996,255.98C114.613,511.988,0.006,397.387,0.006,256    c0-141.389,114.607-255.988,255.992-255.988C397.387,0.012,511.994,114.611,511.994,256.008z" fill="#007CB8"/><path d="M280.373,211.672l-6.984,6.984l-84.365-84.367l-45.727,45.719l45.328,45.32l-50.602,163.41l123.107,123.117    c109.311-2.156,201.794-72.766,236.332-170.771L380.645,224.273l-76.49,11.188L280.373,211.672z" opacity="0.1"/></g><path d="M197.569,155.898c0,18.047-14.515,32.664-32.421,32.664   c-17.891,0-32.406-14.617-32.406-32.656c0-18.023,14.516-32.646,32.406-32.646C183.055,123.26,197.569,137.883,197.569,155.898z    M192.827,211.742h-54.819l0.016,176.996l54.804-0.008V211.742z M280.436,211.742h-52.563V388.73l52.563,0.008   c0,0,0-65.654,0-92.904c0.008-24.891,11.461-39.703,33.398-39.703c20.155,0,29.851,14.219,29.851,39.703s0,92.896,0,92.896h54.538   c0,0,0-64.662,0-112.053c0-47.436-26.875-70.334-64.429-70.334s-53.358,29.25-53.358,29.25V211.742L280.436,211.742z" fill="#F4F6F9" id="Linkedin_1_"/></g></svg>