<?xml version="1.0" encoding="UTF-8"?>
<svg width="80px" height="80px" viewBox="0 0 80 80" version="1.1" xmlns="http://www.w3.org/2000/svg" xmlns:xlink="http://www.w3.org/1999/xlink">
    <!-- Generator: Sketch 48.1 (47250) - http://www.bohemiancoding.com/sketch -->
    <title>drive-pdf</title>
    <desc>Created with Sketch.</desc>
    <defs></defs>
    <g id="Material-Drive-Icons" stroke="none" stroke-width="1" fill="none" fill-rule="evenodd" transform="translate(-469.000000, -456.000000)">
        <g id="drive-pdf" transform="translate(469.000000, 456.000000)">
            <circle id="Combined-Shape" fill="#417505" cx="40" cy="40" r="40"></circle>
            <path d="M38.6,33.2 L38.6,33.2 L38.6,33.2 C38.8,32.4 39,32 39,31.4 L39,31 C39.2,30 39.2,29.2 39,29 C39,29 39,29 39,28.8 L38.8,28.6 L38.8,28.6 C38.8,28.6 38.8,28.8 38.6,28.8 C38.2,30 38.2,31.4 38.6,33.2 L38.6,33.2 L38.6,33.2 Z M32.6,47 C32.2,47.2 31.8,47.4 31.6,47.6 C30.2,48.8 29.2,50.2 29,50.8 L29,50.8 C30.2,50.6 31.4,49.4 32.6,47 L32.6,47 L32.6,47 L32.6,47 Z M51,44 C50.8,43.8 50,43.2 47.2,43.2 L46.8,43.2 L46.8,43.2 C46.8,43.2 46.8,43.2 46.8,43.4 C48.2,44 49.6,44.4 50.6,44.4 L51,44.4 L51,44.4 L51.2,44.4 C51.2,44.4 51.2,44.4 51.2,44.2 L51.2,44.2 C51.2,44.2 51,44.2 51,44 L51,44 Z M54,22 L26,22 C23.8,22 22,23.8 22,26 L22,54 C22,56.2 23.8,58 26,58 L54,58 C56.2,58 58,56.2 58,54 L58,26 C58,23.8 56.2,22 54,22 L54,22 Z M51.8,45.6 C51.4,45.8 50.8,46 50,46 C48.4,46 46,45.6 44,44.6 C40.6,45 38,45.4 36,46.2 C35.8,46.2 35.8,46.2 35.6,46.4 C33.2,50.6 31.2,52.6 29.6,52.6 C29.2,52.6 29,52.6 28.8,52.4 L27.8,51.8 L27.8,51.6 C27.6,51.2 27.6,51 27.6,50.6 C27.8,49.6 29,47.8 31.4,46.4 C31.8,46.2 32.4,45.8 33.2,45.4 C33.8,44.4 34.4,43.2 35.2,41.8 C36.2,39.8 36.8,37.8 37.4,36 L37.4,36 C36.6,33.6 36.2,32.2 37,29.4 C37.2,28.6 37.8,27.8 38.6,27.8 L39,27.8 C39.4,27.8 39.8,28 40.2,28.2 C41.6,29.6 41,32.8 40.2,35.4 L40.2,35.6 C41,37.8 42.2,39.6 43.4,40.8 C44,41.2 44.4,41.6 45.2,42 C46.2,42 47,41.8 47.8,41.8 C50.2,41.8 51.8,42.2 52.4,43.2 C52.6,43.6 52.6,44 52.6,44.4 C52.4,44.6 52.2,45.2 51.8,45.6 L51.8,45.6 Z M38.8,37.8 C38.4,39.2 37.6,40.8 36.8,42.6 C36.4,43.4 36,44 35.6,44.8 L35.8,44.8 L36,44.8 C38.6,43.8 41,43.2 42.6,43 C42.2,42.8 42,42.6 41.8,42.4 C40.8,41.2 39.6,39.6 38.8,37.8 L38.8,37.8 Z" id="Shape" fill="#FFFFFF"></path>
        </g>
    </g>
</svg>