<?xml version="1.0" ?><!DOCTYPE svg  PUBLIC '-//W3C//DTD SVG 1.1//EN'  'http://www.w3.org/Graphics/SVG/1.1/DTD/svg11.dtd'><svg enable-background="new 0 0 512 512" height="512px" id="Слой_1" version="1.1" viewBox="0 0 512 512" width="512px" xml:space="preserve" xmlns="http://www.w3.org/2000/svg" xmlns:xlink="http://www.w3.org/1999/xlink"><g id="twitter"><g><path d="M511.994,256c0,141.387-114.6,255.996-255.988,255.996c-141.4,0-256-114.609-256-255.996    c0-141.389,114.6-255.996,255.992-255.996C397.395,0.004,512.002,114.611,511.994,256z" fill="#00B7EB"/><path d="M185.563,250.859l-40.391,40.389l29.781,29.781l-11.938,11.953l44.288,44.281l-6.336,6.734l-87.187-6.719    l134.521,134.514c2.563,0.078,5.117,0.203,7.703,0.203c137.998,0,250.426-109.203,255.738-245.904L408.801,163.148    L258.045,323.342L185.563,250.859z" opacity="0.1"/></g><path d="M417.191,187.797c-11.172,4.938-23.156,8.281-35.758,9.797   c12.852-7.703,22.719-19.906,27.367-34.445c-12.016,7.133-25.352,12.305-39.516,15.102c-11.359-12.109-27.538-19.656-45.444-19.656   c-34.374,0-62.241,27.859-62.241,62.266c0,4.875,0.547,9.625,1.609,14.188c-51.733-2.609-97.592-27.375-128.295-65.063   c-5.375,9.203-8.438,19.906-8.445,31.313c0.008,21.609,11,40.656,27.703,51.828c-10.203-0.328-19.797-3.125-28.203-7.781   c0,0.25,0,0.516,0,0.766c0,30.186,21.461,55.342,49.938,61.092c-5.219,1.406-10.734,2.156-16.398,2.156   c-4.023,0-7.922-0.375-11.719-1.094c7.93,24.734,30.922,42.734,58.14,43.234c-21.296,16.688-48.124,26.656-77.296,26.656   c-5.023-0.016-9.98-0.281-14.852-0.875c27.555,17.67,60.266,27.998,95.421,27.998c114.506,0,177.099-94.904,177.099-177.215   c0-2.672-0.055-5.375-0.164-8.047C398.285,211.234,408.84,200.266,417.191,187.797z" fill="#F4F6F9" id="Twitter_2_"/></g></svg>