<?xml version="1.0" ?><!DOCTYPE svg  PUBLIC '-//W3C//DTD SVG 1.1//EN'  'http://www.w3.org/Graphics/SVG/1.1/DTD/svg11.dtd'><svg enable-background="new 0 0 512 512" height="512px" id="Слой_1" version="1.1" viewBox="0 0 512 512" width="512px" xml:space="preserve" xmlns="http://www.w3.org/2000/svg" xmlns:xlink="http://www.w3.org/1999/xlink"><g id="youtube"><g><path d="M511.994,256.008c0,141.387-114.607,255.988-255.996,255.988c-141.393,0-256.004-114.609-255.992-255.988    C-0.006,114.611,114.605,0.004,255.998,0.004C397.387,0.004,511.994,114.619,511.994,256.008z" fill="#FA2216"/><path d="M322.794,149.539l-14.687-14.68l-4.789,34.188l-1.188,1.188l-29.586-29.594l-1.172,1.172l-36.977-36.975    l-10.444,31.131l-31.398-31.389l2.492,37.764l20.055,20.047l-19.305,57.578l28.397,28.391l-8.976,8.998l-69.968-1.172    l-10.391,144.936L245.467,511.73c3.492,0.141,7,0.266,10.531,0.266c124.67,0,228.488-89.141,251.285-207.154L337.364,134.93    L322.794,149.539z" opacity="0.15"/></g><g id="You_tube_2_"><polygon fill="#F4F6F9" points="195.796,219.969 213.515,219.969 213.515,173.164 234.131,104.572 216.132,104.58     204.772,150.703 192.554,104.58 174.703,104.572 195.796,173.164   "/><path d="M303.365,221.203c4.758,0,11.375-2.5,18.187-10.625v9.391h15.742v-85.125h-15.742v64.602    c-1.913,2.422-6.187,6.391-9.249,6.391c-3.359,0-4.195-2.32-4.195-5.742v-65.234h-15.734V206    C292.373,214.391,294.928,221.203,303.365,221.203z" fill="#F4F6F9"/><path d="M233.326,198.742c0,14.992,7.797,22.82,23.07,22.82c12.656,0,22.617-8.523,22.617-22.828v-41.719    c0-13.313-9.867-22.875-22.617-22.867c-13.867,0-23.07,9.211-23.07,22.867V198.742z M249.529,158.43    c0-4.664,2.133-8.133,6.547-8.133c4.828,0,6.898,3.367,6.898,8.125l0.008,39.594c0,4.641-2.359,8.047-6.586,8.047    c-4.352,0-6.867-3.563-6.867-8.047V158.43z" fill="#F4F6F9"/><path d="M337.755,313.998c-5.555,0-6.695,3.93-6.695,9.484v8.219h13.242v-8.219    C344.294,318.021,343.146,313.998,337.755,313.998z" fill="#F4F6F9"/><path d="M279.482,314.498c-1.031,0.531-2.078,1.352-3.086,2.484v50.5c1.219,1.336,2.398,2.281,3.547,2.852    c2.438,1.242,6.008,1.352,7.664-0.836c0.867-1.148,1.305-2.984,1.305-5.594v-41.844c0-2.727-0.539-4.813-1.602-6.227    C285.498,313.428,282.107,313.154,279.482,314.498z" fill="#F4F6F9"/><path d="M360.668,244.242l-209.348-0.008c-12.852,0-23.266,10.469-23.258,23.396l-0.008,116.959    c0,12.93,10.414,23.391,23.266,23.391h209.348c12.852,0,23.273-10.461,23.273-23.391V267.631    C383.941,254.703,373.52,244.242,360.668,244.242z M186.609,382.904h-16.883v-93.922h-17.453v-15.961h51.796v15.961h-17.46    V382.904z M246.646,382.904h-14.992v-8.938c-2.758,3.313-5.641,5.813-8.608,7.531c-8.094,4.654-19.18,4.561-19.18-11.883v-67.742    h14.984v62.109c0,3.273,0.781,5.484,3.984,5.484c2.929,0,6.991-3.781,8.819-6.078v-61.516h14.992V382.904z M304.326,366.115    c0,10.055-3.727,17.836-13.703,17.836c-5.492,0-10.055-2.023-14.227-7.266v6.219h-15.133V273.021h15.133v35.383    c3.375-4.141,7.977-7.57,13.328-7.57c10.977,0,14.602,9.328,14.602,20.32V366.115z M359.723,344.279H331.06v15.297    c0,6.078,0.516,11.328,6.547,11.328c6.32,0,6.688-4.273,6.688-11.328v-5.633l15.429,0.008v6.078    c0,15.625-6.672,25.061-22.46,25.061c-14.313,0-21.624-10.459-21.624-25.045v-36.391c0-14.078,9.249-23.836,22.765-23.836    c14.382,0,21.319,9.18,21.319,23.836l0,0V344.279z" fill="#F4F6F9"/></g></g></svg>